<?xml version="1.0" encoding="UTF-8" standalone="no" ?>
<!DOCTYPE svg PUBLIC "-//W3C//DTD SVG 1.1//EN" "http://www.w3.org/Graphics/SVG/1.1/DTD/svg11.dtd">
<svg xmlns="http://www.w3.org/2000/svg" xmlns:xlink="http://www.w3.org/1999/xlink" version="1.1" width="256" height="256" viewBox="0 0 256 256" xml:space="preserve">
<desc>Created with Fabric.js 5.3.0</desc>
<defs>
</defs>
<g transform="matrix(9.4701211638 0 0 9.4700564647 128.060819455 128.060787494)" id="S1yLv0es-YEOf-2mc72GB"  >
<linearGradient id="SVGID_4_0" gradientUnits="userSpaceOnUse" gradientTransform="matrix(26.00048 0 0 25.99935 66.993 897.485)"  x1="0.148" y1="0.851" x2="0.845" y2="0.154">
<stop offset="0%" style="stop-color:rgb(0,113,255);stop-opacity: 1"/>
<stop offset="100%" style="stop-color:rgb(0,191,225);stop-opacity: 1"/>
</linearGradient>
<path style="stroke: none; stroke-width: 0.987988; stroke-dasharray: none; stroke-linecap: butt; stroke-dashoffset: 0; stroke-linejoin: miter; stroke-miterlimit: 4; fill: url(#SVGID_4_0); fill-rule: nonzero; opacity: 1;"  transform=" translate(-79.9926771994, -910.4836717821)" d="M 89.318 903.552 L 87.18299999999999 905.674 C 86.80699999999999 906.011 86.62499999999999 906.553 86.836 907.011 C 88.258 909.987 87.718 913.535 85.384 915.867 C 83.049 918.198 79.497 918.737 76.518 917.3159999999999 C 76.07900000000001 917.1189999999999 75.56400000000001 917.286 75.226 917.6279999999999 L 73.056 919.795 C 72.80166619838293 920.044296650572 72.67668581670307 920.3970588990095 72.7173446207773 920.7508686844631 C 72.75800342485152 921.1046784699167 72.95974596943893 921.419894658319 73.264 921.6049999999999 C 78.37674286810854 924.6987511837762 84.93983688065487 923.9100248637266 89.17399999999999 919.6929999999999 C 93.40578021039488 915.4791804293548 94.21328835115949 908.9204473862426 91.13 903.8059999999998 C 90.95311629099339 903.4943146471409 90.64146324629594 903.2824983293419 90.28655403741942 903.2327483629762 C 89.9316448285429 903.1829983966105 89.57376438556557 903.3009617862255 89.318 903.5519999999998 z M 70.851 901.2470000000001 C 66.59889275813852 905.4445104613064 65.76477946613973 912.0038617699207 68.831 917.1320000000001 C 69.0078837090066 917.443685352859 69.31953675370404 917.6555016706579 69.67444596258058 917.7052516370237 C 70.0293551714571 917.7550016033894 70.38723561443442 917.6370382137744 70.643 917.3860000000001 L 72.767 915.2760000000001 C 73.152 914.94 73.339 914.392 73.12599999999999 913.9280000000001 C 71.70299999999999 910.9520000000001 72.24199999999999 907.4040000000001 74.57699999999998 905.0720000000001 C 76.91099999999999 902.7400000000001 80.46399999999998 902.2010000000001 83.44299999999998 903.6220000000001 C 83.87699999999998 903.816 84.38499999999998 903.6550000000001 84.72399999999999 903.3220000000001 L 86.90599999999999 901.1420000000002 C 87.16109617718311 900.8930718707124 87.2866013277315 900.5400824487539 87.24590971567878 900.1859871707951 C 87.20521810362607 899.8318918928364 87.0029129379268 899.5165734906454 86.698 899.3320000000002 C 81.57531829424231 896.2644158377593 75.02210601088025 897.0779493326987 70.80499999999998 901.3050000000002 z" stroke-linecap="round" />
</g>
</svg>